<mxfile host="app.diagrams.net" agent="Mozilla/5.0 (Windows NT 10.0; Win64; x64; rv:130.0) Gecko/20100101 Firefox/130.0" version="24.7.7">
  <diagram name="Seite-1" id="0gbFMJO8GkSnmhqrrLxl">
    <mxGraphModel dx="1290" dy="530" grid="1" gridSize="10" guides="1" tooltips="1" connect="1" arrows="1" fold="1" page="1" pageScale="1" pageWidth="827" pageHeight="1169" math="0" shadow="0">
      <root>
        <mxCell id="0" />
        <mxCell id="1" parent="0" />
        <mxCell id="CniOOqTi2MUg2u5NT7FD-1" value="Kühlschrank" style="rounded=0;whiteSpace=wrap;html=1;" vertex="1" parent="1">
          <mxGeometry x="80" y="250" width="120" height="60" as="geometry" />
        </mxCell>
        <mxCell id="CniOOqTi2MUg2u5NT7FD-2" value="Lebensmittel" style="rounded=0;whiteSpace=wrap;html=1;" vertex="1" parent="1">
          <mxGeometry x="460" y="250" width="120" height="60" as="geometry" />
        </mxCell>
        <mxCell id="CniOOqTi2MUg2u5NT7FD-4" value="&lt;div&gt;enthält&lt;/div&gt;" style="rhombus;whiteSpace=wrap;html=1;" vertex="1" parent="1">
          <mxGeometry x="290" y="240" width="80" height="80" as="geometry" />
        </mxCell>
        <mxCell id="CniOOqTi2MUg2u5NT7FD-6" value="" style="endArrow=none;html=1;rounded=0;exitX=1;exitY=0.5;exitDx=0;exitDy=0;entryX=0;entryY=0.5;entryDx=0;entryDy=0;" edge="1" parent="1" source="CniOOqTi2MUg2u5NT7FD-1" target="CniOOqTi2MUg2u5NT7FD-4">
          <mxGeometry width="50" height="50" relative="1" as="geometry">
            <mxPoint x="280" y="340" as="sourcePoint" />
            <mxPoint x="330" y="290" as="targetPoint" />
          </mxGeometry>
        </mxCell>
        <mxCell id="CniOOqTi2MUg2u5NT7FD-7" value="" style="endArrow=none;html=1;rounded=0;exitX=0;exitY=0.5;exitDx=0;exitDy=0;entryX=1;entryY=0.5;entryDx=0;entryDy=0;" edge="1" parent="1" source="CniOOqTi2MUg2u5NT7FD-2" target="CniOOqTi2MUg2u5NT7FD-4">
          <mxGeometry width="50" height="50" relative="1" as="geometry">
            <mxPoint x="210" y="290" as="sourcePoint" />
            <mxPoint x="300" y="290" as="targetPoint" />
          </mxGeometry>
        </mxCell>
        <mxCell id="CniOOqTi2MUg2u5NT7FD-8" value="1" style="text;html=1;align=center;verticalAlign=middle;resizable=0;points=[];autosize=1;strokeColor=none;fillColor=none;" vertex="1" parent="1">
          <mxGeometry x="195" y="258" width="30" height="30" as="geometry" />
        </mxCell>
        <mxCell id="CniOOqTi2MUg2u5NT7FD-9" value="n" style="text;html=1;align=center;verticalAlign=middle;resizable=0;points=[];autosize=1;strokeColor=none;fillColor=none;" vertex="1" parent="1">
          <mxGeometry x="435" y="258" width="30" height="30" as="geometry" />
        </mxCell>
        <mxCell id="CniOOqTi2MUg2u5NT7FD-10" value="MHD" style="ellipse;whiteSpace=wrap;html=1;" vertex="1" parent="1">
          <mxGeometry x="630" y="230" width="70" height="40" as="geometry" />
        </mxCell>
        <mxCell id="CniOOqTi2MUg2u5NT7FD-11" value="&lt;u&gt;ID&lt;/u&gt;" style="ellipse;whiteSpace=wrap;html=1;" vertex="1" parent="1">
          <mxGeometry x="410" y="190" width="70" height="40" as="geometry" />
        </mxCell>
        <mxCell id="CniOOqTi2MUg2u5NT7FD-12" value="" style="endArrow=none;html=1;rounded=0;entryX=0.771;entryY=0.925;entryDx=0;entryDy=0;entryPerimeter=0;exitX=0.167;exitY=0;exitDx=0;exitDy=0;exitPerimeter=0;" edge="1" parent="1" source="CniOOqTi2MUg2u5NT7FD-2" target="CniOOqTi2MUg2u5NT7FD-11">
          <mxGeometry width="50" height="50" relative="1" as="geometry">
            <mxPoint x="420" y="350" as="sourcePoint" />
            <mxPoint x="470" y="300" as="targetPoint" />
          </mxGeometry>
        </mxCell>
        <mxCell id="CniOOqTi2MUg2u5NT7FD-13" value="" style="endArrow=none;html=1;rounded=0;entryX=0;entryY=1;entryDx=0;entryDy=0;exitX=1.008;exitY=0.367;exitDx=0;exitDy=0;exitPerimeter=0;" edge="1" parent="1" source="CniOOqTi2MUg2u5NT7FD-2" target="CniOOqTi2MUg2u5NT7FD-10">
          <mxGeometry width="50" height="50" relative="1" as="geometry">
            <mxPoint x="490" y="260" as="sourcePoint" />
            <mxPoint x="474" y="237" as="targetPoint" />
          </mxGeometry>
        </mxCell>
        <mxCell id="CniOOqTi2MUg2u5NT7FD-14" value="Bezeichnung" style="ellipse;whiteSpace=wrap;html=1;" vertex="1" parent="1">
          <mxGeometry x="490" y="170" width="90" height="40" as="geometry" />
        </mxCell>
        <mxCell id="CniOOqTi2MUg2u5NT7FD-15" value="" style="endArrow=none;html=1;rounded=0;entryX=0.5;entryY=1;entryDx=0;entryDy=0;exitX=0.5;exitY=0;exitDx=0;exitDy=0;" edge="1" parent="1" source="CniOOqTi2MUg2u5NT7FD-2" target="CniOOqTi2MUg2u5NT7FD-14">
          <mxGeometry width="50" height="50" relative="1" as="geometry">
            <mxPoint x="560" y="260" as="sourcePoint" />
            <mxPoint x="625" y="220" as="targetPoint" />
          </mxGeometry>
        </mxCell>
        <mxCell id="CniOOqTi2MUg2u5NT7FD-16" value="Einlagerungsdatum" style="ellipse;whiteSpace=wrap;html=1;" vertex="1" parent="1">
          <mxGeometry x="580" y="180" width="130" height="40" as="geometry" />
        </mxCell>
        <mxCell id="CniOOqTi2MUg2u5NT7FD-17" value="" style="endArrow=none;html=1;rounded=0;entryX=0.269;entryY=0.925;entryDx=0;entryDy=0;exitX=0.75;exitY=0;exitDx=0;exitDy=0;entryPerimeter=0;" edge="1" parent="1" source="CniOOqTi2MUg2u5NT7FD-2" target="CniOOqTi2MUg2u5NT7FD-16">
          <mxGeometry width="50" height="50" relative="1" as="geometry">
            <mxPoint x="530" y="260" as="sourcePoint" />
            <mxPoint x="545" y="220" as="targetPoint" />
          </mxGeometry>
        </mxCell>
        <mxCell id="CniOOqTi2MUg2u5NT7FD-18" value="Preis" style="ellipse;whiteSpace=wrap;html=1;" vertex="1" parent="1">
          <mxGeometry x="630" y="288" width="70" height="40" as="geometry" />
        </mxCell>
        <mxCell id="CniOOqTi2MUg2u5NT7FD-19" value="" style="endArrow=none;html=1;rounded=0;entryX=0;entryY=0;entryDx=0;entryDy=0;exitX=1;exitY=0.5;exitDx=0;exitDy=0;" edge="1" parent="1" source="CniOOqTi2MUg2u5NT7FD-2" target="CniOOqTi2MUg2u5NT7FD-18">
          <mxGeometry width="50" height="50" relative="1" as="geometry">
            <mxPoint x="591" y="282" as="sourcePoint" />
            <mxPoint x="650" y="274" as="targetPoint" />
          </mxGeometry>
        </mxCell>
        <mxCell id="CniOOqTi2MUg2u5NT7FD-20" value="&lt;u&gt;ID&lt;/u&gt;" style="ellipse;whiteSpace=wrap;html=1;" vertex="1" parent="1">
          <mxGeometry x="40" y="200" width="70" height="40" as="geometry" />
        </mxCell>
        <mxCell id="CniOOqTi2MUg2u5NT7FD-21" value="" style="endArrow=none;html=1;rounded=0;entryX=0.771;entryY=0.925;entryDx=0;entryDy=0;entryPerimeter=0;exitX=0.25;exitY=0;exitDx=0;exitDy=0;" edge="1" parent="1" target="CniOOqTi2MUg2u5NT7FD-20" source="CniOOqTi2MUg2u5NT7FD-1">
          <mxGeometry width="50" height="50" relative="1" as="geometry">
            <mxPoint x="140" y="240" as="sourcePoint" />
            <mxPoint x="130" y="290" as="targetPoint" />
          </mxGeometry>
        </mxCell>
        <mxCell id="CniOOqTi2MUg2u5NT7FD-22" value="Standort" style="ellipse;whiteSpace=wrap;html=1;" vertex="1" parent="1">
          <mxGeometry x="110" y="190" width="70" height="40" as="geometry" />
        </mxCell>
        <mxCell id="CniOOqTi2MUg2u5NT7FD-23" value="" style="endArrow=none;html=1;rounded=0;entryX=0.5;entryY=1;entryDx=0;entryDy=0;exitX=0.5;exitY=0;exitDx=0;exitDy=0;" edge="1" parent="1" source="CniOOqTi2MUg2u5NT7FD-1" target="CniOOqTi2MUg2u5NT7FD-22">
          <mxGeometry width="50" height="50" relative="1" as="geometry">
            <mxPoint x="120" y="260" as="sourcePoint" />
            <mxPoint x="104" y="247" as="targetPoint" />
          </mxGeometry>
        </mxCell>
      </root>
    </mxGraphModel>
  </diagram>
</mxfile>
